<svg width="680" height="340" viewBox="0 0 680 340" xmlns="http://www.w3.org/2000/svg" style="background:#fff;font-family:Arial,sans-serif">
  <defs>
    <marker id="arr" viewBox="0 0 10 10" refX="8" refY="5" markerWidth="6" markerHeight="6" orient="auto-start-reverse">
      <path d="M2 1L8 5L2 9" fill="none" stroke="#888780" stroke-width="1.5" stroke-linecap="round"/>
    </marker>
  </defs>

  <rect x="30" y="20" width="620" height="140" rx="16" fill="#F1EFE8" stroke="#5F5E5A" stroke-width="0.8"/>
  <text x="340" y="44" text-anchor="middle" font-size="12" font-weight="bold" fill="#2C2C2A">Indexing Phase (done once at startup)</text>

  <rect x="50" y="60" width="130" height="80" rx="8" fill="#E6F1FB" stroke="#185FA5" stroke-width="0.8"/>
  <text x="115" y="88" text-anchor="middle" font-size="12" font-weight="bold" fill="#0C447C">Knowledge Base</text>
  <text x="115" y="108" text-anchor="middle" font-size="10" fill="#185FA5">pricing.json</text>
  <text x="115" y="124" text-anchor="middle" font-size="10" fill="#185FA5">policies.md, faqs.md</text>

  <line x1="180" y1="100" x2="210" y2="100" stroke="#888780" stroke-width="1.2" marker-end="url(#arr)"/>

  <rect x="210" y="60" width="110" height="80" rx="8" fill="#EEEDFE" stroke="#534AB7" stroke-width="0.8"/>
  <text x="265" y="88" text-anchor="middle" font-size="12" font-weight="bold" fill="#3C3489">Chunker</text>
  <text x="265" y="108" text-anchor="middle" font-size="10" fill="#534AB7">Split into</text>
  <text x="265" y="124" text-anchor="middle" font-size="10" fill="#534AB7">passages</text>

  <line x1="320" y1="100" x2="350" y2="100" stroke="#888780" stroke-width="1.2" marker-end="url(#arr)"/>

  <rect x="350" y="60" width="110" height="80" rx="8" fill="#E1F5EE" stroke="#0F6E56" stroke-width="0.8"/>
  <text x="405" y="88" text-anchor="middle" font-size="12" font-weight="bold" fill="#085041">Embedder</text>
  <text x="405" y="108" text-anchor="middle" font-size="10" fill="#0F6E56">Sentence</text>
  <text x="405" y="124" text-anchor="middle" font-size="10" fill="#0F6E56">Transformers</text>

  <line x1="460" y1="100" x2="490" y2="100" stroke="#888780" stroke-width="1.2" marker-end="url(#arr)"/>

  <rect x="490" y="60" width="130" height="80" rx="8" fill="#FAECE7" stroke="#993C1D" stroke-width="0.8"/>
  <text x="555" y="88" text-anchor="middle" font-size="12" font-weight="bold" fill="#712B13">FAISS Index</text>
  <text x="555" y="108" text-anchor="middle" font-size="10" fill="#993C1D">Local vector</text>
  <text x="555" y="124" text-anchor="middle" font-size="10" fill="#993C1D">store</text>

  <rect x="30" y="180" width="620" height="140" rx="16" fill="#F1EFE8" stroke="#5F5E5A" stroke-width="0.8"/>
  <text x="340" y="204" text-anchor="middle" font-size="12" font-weight="bold" fill="#2C2C2A">Query Phase (every turn with inquiry intent)</text>

  <rect x="50" y="220" width="130" height="80" rx="8" fill="#E6F1FB" stroke="#185FA5" stroke-width="0.8"/>
  <text x="115" y="248" text-anchor="middle" font-size="12" font-weight="bold" fill="#0C447C">User Question</text>
  <text x="115" y="268" text-anchor="middle" font-size="10" fill="#185FA5">"What is Pro plan?"</text>

  <line x1="180" y1="260" x2="210" y2="260" stroke="#888780" stroke-width="1.2" marker-end="url(#arr)"/>

  <rect x="210" y="220" width="110" height="80" rx="8" fill="#E1F5EE" stroke="#0F6E56" stroke-width="0.8"/>
  <text x="265" y="248" text-anchor="middle" font-size="12" font-weight="bold" fill="#085041">Embed Query</text>
  <text x="265" y="268" text-anchor="middle" font-size="10" fill="#0F6E56">Same model</text>

  <line x1="320" y1="260" x2="350" y2="260" stroke="#888780" stroke-width="1.2" marker-end="url(#arr)"/>

  <rect x="350" y="220" width="130" height="80" rx="8" fill="#FAECE7" stroke="#993C1D" stroke-width="0.8"/>
  <text x="415" y="248" text-anchor="middle" font-size="12" font-weight="bold" fill="#712B13">Top-k Search</text>
  <text x="415" y="268" text-anchor="middle" font-size="10" fill="#993C1D">Cosine similarity</text>

  <line x1="480" y1="260" x2="510" y2="260" stroke="#888780" stroke-width="1.2" marker-end="url(#arr)"/>

  <rect x="510" y="220" width="120" height="80" rx="8" fill="#EAF3DE" stroke="#3B6D11" stroke-width="0.8"/>
  <text x="570" y="248" text-anchor="middle" font-size="12" font-weight="bold" fill="#27500A">LLM Prompt</text>
  <text x="570" y="268" text-anchor="middle" font-size="10" fill="#3B6D11">Context injected</text>
</svg>
