<svg width="680" height="480" viewBox="0 0 680 480" xmlns="http://www.w3.org/2000/svg" style="background:#fff;font-family:Arial,sans-serif">
  <defs>
    <marker id="arr" viewBox="0 0 10 10" refX="8" refY="5" markerWidth="6" markerHeight="6" orient="auto-start-reverse">
      <path d="M2 1L8 5L2 9" fill="none" stroke="#888780" stroke-width="1.5" stroke-linecap="round"/>
    </marker>
  </defs>

  <rect x="225" y="20" width="230" height="44" rx="8" fill="#FAEEDA" stroke="#854F0B" stroke-width="0.8"/>
  <text x="340" y="46" text-anchor="middle" font-size="13" font-weight="bold" fill="#633806">High-Intent Detected</text>

  <line x1="340" y1="64" x2="340" y2="100" stroke="#888780" stroke-width="1.2" marker-end="url(#arr)"/>

  <rect x="210" y="100" width="260" height="56" rx="8" fill="#EEEDFE" stroke="#534AB7" stroke-width="0.8"/>
  <text x="340" y="123" text-anchor="middle" font-size="12" font-weight="bold" fill="#3C3489">Check state.lead_name</text>
  <text x="340" y="142" text-anchor="middle" font-size="10" fill="#534AB7">Is name collected?</text>

  <line x1="280" y1="156" x2="130" y2="200" stroke="#888780" stroke-width="1.2" marker-end="url(#arr)"/>
  <line x1="400" y1="156" x2="550" y2="200" stroke="#888780" stroke-width="1.2" marker-end="url(#arr)"/>
  <text x="180" y="188" text-anchor="middle" font-size="10" fill="#E24B4A">no</text>
  <text x="500" y="188" text-anchor="middle" font-size="10" fill="#639922">yes</text>

  <rect x="50" y="200" width="160" height="56" rx="8" fill="#E6F1FB" stroke="#185FA5" stroke-width="0.8"/>
  <text x="130" y="223" text-anchor="middle" font-size="12" font-weight="bold" fill="#0C447C">Ask for Name</text>
  <text x="130" y="242" text-anchor="middle" font-size="10" fill="#185FA5">Save reply → state</text>

  <rect x="470" y="200" width="180" height="56" rx="8" fill="#EEEDFE" stroke="#534AB7" stroke-width="0.8"/>
  <text x="560" y="223" text-anchor="middle" font-size="12" font-weight="bold" fill="#3C3489">Check state.lead_email</text>
  <text x="560" y="242" text-anchor="middle" font-size="10" fill="#534AB7">Is email collected?</text>

  <line x1="510" y1="256" x2="390" y2="300" stroke="#888780" stroke-width="1.2" marker-end="url(#arr)"/>
  <line x1="610" y1="256" x2="610" y2="300" stroke="#888780" stroke-width="1.2" marker-end="url(#arr)"/>
  <text x="425" y="290" text-anchor="middle" font-size="10" fill="#E24B4A">no</text>
  <text x="630" y="290" font-size="10" fill="#639922">yes</text>

  <rect x="270" y="300" width="160" height="56" rx="8" fill="#E6F1FB" stroke="#185FA5" stroke-width="0.8"/>
  <text x="350" y="323" text-anchor="middle" font-size="12" font-weight="bold" fill="#0C447C">Ask for Email</text>
  <text x="350" y="342" text-anchor="middle" font-size="10" fill="#185FA5">Save reply → state</text>

  <rect x="510" y="300" width="150" height="56" rx="8" fill="#EEEDFE" stroke="#534AB7" stroke-width="0.8"/>
  <text x="585" y="323" text-anchor="middle" font-size="12" font-weight="bold" fill="#3C3489">Check platform</text>
  <text x="585" y="342" text-anchor="middle" font-size="10" fill="#534AB7">Collected?</text>

  <line x1="545" y1="356" x2="480" y2="400" stroke="#888780" stroke-width="1.2" marker-end="url(#arr)"/>
  <line x1="620" y1="356" x2="620" y2="400" stroke="#888780" stroke-width="1.2" marker-end="url(#arr)"/>
  <text x="490" y="390" text-anchor="middle" font-size="10" fill="#E24B4A">no</text>
  <text x="640" y="390" font-size="10" fill="#639922">yes</text>

  <rect x="370" y="400" width="160" height="44" rx="8" fill="#E6F1FB" stroke="#185FA5" stroke-width="0.8"/>
  <text x="450" y="426" text-anchor="middle" font-size="12" font-weight="bold" fill="#0C447C">Ask for Platform</text>

  <rect x="560" y="400" width="100" height="44" rx="8" fill="#FAECE7" stroke="#993C1D" stroke-width="0.8"/>
  <text x="610" y="426" text-anchor="middle" font-size="13" font-weight="bold" fill="#712B13">Fire Tool</text>

  <text x="340" y="468" text-anchor="middle" font-size="11" fill="#5F5E5A">Tool fires ONLY when all 3 slots confirmed in AgentState</text>
</svg>
